<svg width="32" height="32" viewBox="0 0 32 32" fill="none" xmlns="http://www.w3.org/2000/svg">
  <g clip-path="url(#clip0_395_1925)">
    <path d="M17.1816 8.27438C18.8087 8.55316 20.2932 9.32424 21.4808 10.5046C22.6624 11.6849 23.4344 13.1678 23.7135 14.7989C23.8203 15.4395 24.3726 15.9022 25.0258 15.9022C25.1089 15.9022 25.1861 15.8903 25.2395 15.8844C25.2455 15.8844 25.2455 15.8844 25.2514 15.8785C25.6077 15.8191 25.9165 15.6293 26.1184 15.3328C26.3203 15.0421 26.4034 14.6922 26.3381 14.3422C25.9699 12.1713 24.9426 10.1902 23.3691 8.61841C21.7895 7.04658 19.8062 6.02044 17.6329 5.6527H17.627C16.9026 5.53407 16.2197 6.02044 16.095 6.74408C15.9762 7.47364 16.4631 8.15575 17.1816 8.27438Z" fill="black" />
    <path d="M25.3643 19.4135C24.6399 18.6602 23.7551 18.2569 22.8169 18.2569C21.8906 18.2569 20.9999 18.6484 20.2576 19.3957L18.4109 21.2404C18.3634 21.2167 18.3219 21.193 18.2803 21.1752L18.1853 21.1277C17.9893 21.0269 17.7577 20.9142 17.5737 20.7956C15.6794 19.5915 13.9455 18.0137 12.2769 15.9733C11.5644 15.0777 11.0597 14.3125 10.6974 13.5533C11.1606 13.1144 11.5941 12.6754 11.9979 12.2602C12.0869 12.1713 12.1819 12.0764 12.271 11.9815C12.3601 11.8866 12.4551 11.7917 12.5501 11.6968C13.322 10.9257 13.7318 10.03 13.7318 9.11066C13.7318 8.19129 13.322 7.30157 12.5501 6.53642L10.7568 4.74513C10.6499 4.63837 10.549 4.53753 10.448 4.4367C10.3471 4.32993 10.2461 4.2291 10.1452 4.12827L10.0027 3.97998C9.6464 3.61816 9.28418 3.24449 8.91009 2.90639C8.19159 2.18869 7.31276 1.80908 6.39237 1.80908C5.47197 1.80908 4.58721 2.18869 3.83902 2.90639C3.83308 2.91233 3.83308 2.91233 3.83308 2.91233L1.58257 5.1544C0.662176 6.07377 0.13963 7.19481 0.0268079 8.48193V8.48786C-0.0919525 10.0122 0.181196 11.6196 0.899697 13.5533C1.98042 16.4715 3.60743 19.1763 6.0064 22.0649C8.93384 25.5525 12.4551 28.3047 16.4573 30.2384H16.4633C18.0071 30.9739 20.0795 31.8399 22.4131 31.9881H22.425H22.4428C22.5735 31.9941 22.716 32 22.8644 32C24.5033 32 25.8869 31.4069 26.9735 30.2324L26.9914 30.2146C27.0032 30.2028 27.0151 30.1909 27.0211 30.1791C27.3476 29.7876 27.7217 29.4317 28.1374 29.0284C28.4284 28.7555 28.7193 28.4708 29.0103 28.1683C29.7466 27.3972 30.1385 26.5016 30.1326 25.5822C30.1266 24.6569 29.7347 23.7672 28.9865 23.0258L25.3643 19.4135ZM25.0081 28.453C24.4321 29.0699 23.767 29.3427 22.8644 29.3427C22.7813 29.3427 22.6863 29.3368 22.5913 29.3309C20.7208 29.2122 18.9513 28.4708 17.6212 27.8361C13.9455 26.0686 10.7212 23.5537 8.04314 20.3507C5.85201 17.7112 4.37344 15.2556 3.39367 12.6221C2.81174 11.0562 2.5861 9.84022 2.6811 8.69546C2.74048 8.02521 2.98988 7.49731 3.46492 7.0228L5.69762 4.79259C5.9292 4.56719 6.17266 4.44856 6.3983 4.44856C6.61207 4.44856 6.83178 4.56719 7.0693 4.79852C7.07524 4.80445 7.07524 4.80445 7.08118 4.81038C7.46715 5.1722 7.84718 5.55774 8.24503 5.96107L8.25691 5.97294C8.44692 6.16867 8.66663 6.4 8.89227 6.61353L10.6856 8.40482C11.2081 8.92678 11.2081 9.29453 10.6856 9.8165C10.4955 10.0063 10.3055 10.1961 10.1155 10.3918L9.98487 10.5283C9.48014 11.0384 9.0051 11.5188 8.48849 11.9755C8.48255 11.9815 8.47067 11.9874 8.46474 11.9993L8.43505 12.0289C7.88875 12.5746 7.73436 13.233 7.99563 13.9744C8.00157 13.9922 8.00751 14.01 8.01345 14.0278C8.01938 14.0397 8.01938 14.0456 8.02532 14.0575C8.5063 15.2141 9.18324 16.3173 10.2224 17.6282C10.2224 17.6341 10.2283 17.6341 10.2283 17.6341C12.0751 19.8999 14.0168 21.6734 16.1782 23.0436C16.4633 23.2215 16.7542 23.3698 17.0274 23.5062C17.2293 23.607 17.4549 23.7257 17.6449 23.8384C17.6568 23.8502 17.6687 23.8562 17.6865 23.8621L17.6984 23.868C17.7162 23.8799 17.7399 23.8918 17.7577 23.8977C18.0428 24.04 18.3219 24.1112 18.6069 24.1112C19.0997 24.1112 19.557 23.9095 19.9192 23.5181L22.1638 21.276C22.3241 21.1158 22.5794 20.9201 22.8466 20.9201C23.096 20.9201 23.3335 21.1099 23.4879 21.276C23.4939 21.2819 23.4939 21.2819 23.4939 21.2819L27.122 24.906C27.4783 25.2619 27.7217 25.683 27.0923 26.3474L27.0864 26.3533C26.8904 26.5668 26.6766 26.7744 26.451 26.988C26.4035 27.0354 26.356 27.0829 26.3026 27.1303C25.8513 27.5455 25.4178 27.9666 25.0081 28.453Z" fill="black" />
    <path d="M31.9797 14.0871C31.38 10.5757 29.7173 7.36684 27.1699 4.82226C24.6106 2.27175 21.4041 0.61095 17.8829 0.0178084C17.1584 -0.10082 16.4755 0.385556 16.3508 1.10919C16.2321 1.83282 16.719 2.51494 17.4375 2.6395C20.4124 3.14367 23.1261 4.55534 25.2816 6.70252C27.4371 8.85562 28.8444 11.5663 29.3492 14.5379C29.4561 15.1785 30.0083 15.6412 30.6615 15.6412H30.6733C30.7565 15.6412 30.8218 15.6293 30.8752 15.6234C30.8812 15.6234 30.8812 15.6234 30.8871 15.6174C31.2434 15.5581 31.5522 15.3683 31.7541 15.0717C31.9619 14.7811 32.0391 14.4312 31.9797 14.0871Z" fill="black" />
  </g>
  <defs>
    <clipPath id="clip0_395_1925">
      <rect width="32" height="32" fill="white" />
    </clipPath>
  </defs>
</svg>